<svg width="256" height="413" xmlns="http://www.w3.org/2000/svg" xmlns:xlink="http://www.w3.org/1999/xlink" xml:space="preserve" overflow="hidden"><g transform="translate(-512 -153)"><path d="M599.932 189.714C595.383 185.143 589.036 182.32 581.981 182.32 574.952 182.32 568.655 185.143 564.159 189.714L564.03 189.714C559.494 194.263 556.671 200.614 556.671 207.643 556.671 214.699 559.494 220.996 564.03 225.519L564.159 225.621C568.655 230.17 574.952 232.967 581.981 232.967 589.036 232.967 595.383 230.17 599.932 225.621L599.999 225.519C604.557 220.996 607.353 214.699 607.353 207.643 607.353 200.614 604.557 194.263 599.999 189.714ZM581.981 536.354C589.036 536.354 595.383 533.481 599.932 528.986L599.999 528.852C604.557 524.365 607.353 518.014 607.353 511.035 607.353 503.979 604.557 497.655 599.999 493.083L599.932 493.083C595.383 488.458 589.036 485.662 581.981 485.662 574.952 485.662 568.655 488.458 564.159 493.083L564.03 493.083C559.494 497.655 556.671 503.979 556.671 511.035 556.671 518.014 559.494 524.365 564.03 528.852L564.159 528.986C568.655 533.481 574.952 536.354 581.981 536.354ZM719.953 459.634C726.229 457.988 731.91 453.961 735.376 447.873L735.844 446.986C738.926 441.21 739.488 434.547 737.842 428.642 736.183 422.318 732.107 416.725 726.032 413.224L725.68 412.987C719.762 409.745 713.018 409.04 706.823 410.713 700.526 412.283 694.871 416.488 691.423 422.527 687.931 428.508 687.2 435.408 688.872 441.758 690.598 448.002 694.634 453.649 700.669 457.176L700.709 457.176C706.756 460.651 713.607 461.28 719.953 459.634ZM607.969 333.387C601.315 326.75 592.145 322.593 581.981 322.593 571.857 322.593 562.709 326.75 556.069 333.387 549.459 340.001 545.383 349.148 545.383 359.285 545.383 369.45 549.459 378.624 556.069 385.314 562.709 391.896 571.857 396.026 581.981 396.026 592.145 396.026 601.315 391.896 607.969 385.314 614.592 378.624 618.668 369.45 618.668 359.285 618.668 349.148 614.592 340.001 607.969 333.387ZM593.358 290.223C608.085 292.649 621.335 299.705 631.446 309.896L631.526 309.896C633.132 311.515 634.702 313.268 636.151 315.043L661.435 300.414C658.036 290.143 657.88 279.403 660.609 269.342 664.218 255.855 672.959 243.782 686.062 236.205L686.495 235.946C699.456 228.6 714.191 227.084 727.495 230.692 740.964 234.296 753.117 243.077 760.682 256.172L760.682 256.198C768.21 269.213 769.74 284.158 766.145 297.591 762.564 311.069 753.782 323.222 740.692 330.746L737.24 332.789 736.888 332.789C724.779 338.56 711.462 339.452 699.233 336.236 689.189 333.569 679.974 327.977 672.763 320.007L647.52 334.591C650.419 342.271 652.029 350.557 652.029 359.285 652.029 367.987 650.419 376.376 647.52 384.109L672.763 398.64C679.974 390.567 689.189 385.077 699.233 382.41 712.702 378.726 727.638 380.296 740.692 387.9L741.526 388.293 741.526 388.346C754.139 395.973 762.604 407.787 766.145 421.113 769.74 434.466 768.21 449.416 760.682 462.457L760.227 463.371 760.173 463.291C752.609 475.864 740.692 484.382 727.535 487.986 714.035 491.54 699.103 490.024 686.062 482.527L686.062 482.42C672.959 474.842 664.218 462.742 660.609 449.287 657.88 439.252 658.036 428.508 661.435 418.241L636.151 403.657C634.702 405.437 633.132 407.109 631.526 408.728L631.446 408.804C621.335 418.946 608.085 426.002 593.358 428.352L593.358 457.569C603.852 459.763 613.258 465.017 620.631 472.385L620.666 472.465C630.545 482.29 636.66 495.982 636.66 511.035 636.66 526.038 630.545 539.645 620.666 549.524L620.631 549.68C610.685 559.559 597.033 565.673 581.981 565.673 567.009 565.673 553.339 559.559 543.42 549.68L543.385 549.68 543.385 549.524C533.492 539.645 527.365 526.038 527.365 511.035 527.365 495.982 533.492 482.29 543.385 472.465L543.385 472.385 543.42 472.385C550.779 465.017 560.198 459.763 570.666 457.569L570.666 428.352C555.926 426.002 542.716 418.946 532.618 408.804L532.511 408.728C519.89 396.053 512 378.624 512 359.285 512 340.001 519.89 322.571 532.511 309.896L532.618 309.896C542.716 299.705 555.926 292.649 570.666 290.223L570.666 261.136C560.198 258.861 550.779 253.612 543.42 246.293L543.385 246.293 543.385 246.213C533.492 236.285 527.365 222.695 527.365 207.643 527.365 192.667 533.492 178.948 543.385 169.069L543.42 169.02C553.339 159.115 567.009 153 581.981 153 597.033 153 610.685 159.115 620.631 169.02L620.631 169.069 620.666 169.069C630.545 178.948 636.66 192.667 636.66 207.643 636.66 222.695 630.545 236.285 620.666 246.213L620.631 246.293C613.258 253.612 603.852 258.861 593.358 261.136ZM735.376 270.831 735.166 270.519C731.674 264.637 726.108 260.716 719.953 259.017 713.607 257.345 706.756 258.054 700.669 261.528L700.709 261.528C694.634 264.976 690.571 270.622 688.872 276.946 687.2 283.217 687.931 290.143 691.423 296.177L691.539 296.338C695.04 302.292 700.606 306.288 706.823 307.907 713.072 309.66 720.034 308.928 726.032 305.427L726.358 305.271C732.263 301.743 736.196 296.177 737.842 290.063 739.515 283.765 738.85 276.866 735.376 270.831Z" fill="#2FA8BB"/></g></svg>